<svg width="167" height="160" viewBox="0 0 167 160" fill="none" xmlns="http://www.w3.org/2000/svg">
<g filter="url(#filter0_d_0_1081)">
<path d="M4 147C4 149.761 6.23858 152 9 152H158C160.761 152 163 149.761 163 147V43.5706C163 41.6904 161.945 39.9692 160.27 39.1156L85.7699 1.15657C84.3439 0.429962 82.6561 0.429962 81.2301 1.15657L6.73008 39.1156C5.0548 39.9692 4 41.6904 4 43.5706V147Z" fill="white"/>
<path d="M4.1 147C4.1 149.706 6.2938 151.9 9 151.9H158C160.706 151.9 162.9 149.706 162.9 147V43.5706C162.9 41.728 161.866 40.0412 160.225 39.2047L85.7245 1.24567C84.327 0.5336 82.673 0.5336 81.2755 1.24567L6.77548 39.2047C5.1337 40.0412 4.1 41.728 4.1 43.5706V147Z" stroke="#004333" stroke-width="0.2"/>
</g>
<defs>
<filter id="filter0_d_0_1081" x="0" y="0.611603" width="167" height="159.388" filterUnits="userSpaceOnUse" color-interpolation-filters="sRGB">
<feFlood flood-opacity="0" result="BackgroundImageFix"/>
<feColorMatrix in="SourceAlpha" type="matrix" values="0 0 0 0 0 0 0 0 0 0 0 0 0 0 0 0 0 0 127 0" result="hardAlpha"/>
<feOffset dy="4"/>
<feGaussianBlur stdDeviation="2"/>
<feComposite in2="hardAlpha" operator="out"/>
<feColorMatrix type="matrix" values="0 0 0 0 0 0 0 0 0 0 0 0 0 0 0 0 0 0 0.25 0"/>
<feBlend mode="normal" in2="BackgroundImageFix" result="effect1_dropShadow_0_1081"/>
<feBlend mode="normal" in="SourceGraphic" in2="effect1_dropShadow_0_1081" result="shape"/>
</filter>
</defs>
</svg>
